{"scene":0,"asset":{"generator":"ImageToStl.com","version":"2.0"},"scenes":[{"name":"Scene","nodes":[0]}],"nodes":[{"name":"Node0","children":[1]},{"name":"Node1","mesh":0,"NodeMesh":{"CalculatedWidth":72.87779235839844,"CalculatedHeight":48.9704008102417,"CalculatedDepth":19.39927864074707,"MaxDimension":72.87779235839844}}],"materials":[{"name":"x1","pbrMetallicRoughness":{"baseColorFactor":[0.9,0.9,0.9,1],"metallicFactor":0.05,"roughnessFactor":0.5},"doubleSided":true}],"meshes":[{"name":"Mesh0","primitives":[{"indices":2,"material":0,"attributes":{"POSITION":0,"NORMAL":1}}]}],"accessors":[{"bufferView":0,"componentType":5126,"count":2404,"type":"VEC3","min":[-0.17049655318260193,0,-0.30901581048965454],"max":[0.17066359519958496,0.3883426785469055,0.4909842014312744]},{"bufferView":1,"componentType":5126,"count":2404,"type":"VEC3"},{"bufferView":2,"componentType":5123,"count":2664,"type":"SCALAR"}],"bufferViews":[{"buffer":0,"byteLength":28848,"byteOffset":0},{"buffer":0,"byteLength":28848,"byteOffset":28848},{"buffer":0,"byteLength":5328,"byteOffset":57696}],"buffers":[{"byteLength":63024,"uri":"data:application/octet-stream;base64,"}]}