{"scene":0,"asset":{"generator":"ImageToStl.com","version":"2.0"},"scenes":[{"name":"Scene","nodes":[0]}],"nodes":[{"name":"Node0","children":[1]},{"name":"Node1","mesh":0,"NodeMesh":{"CalculatedWidth":33.24460220336914,"CalculatedHeight":41.54800891876221,"CalculatedDepth":31.791362762451172,"MaxDimension":41.54800891876221}}],"materials":[{"name":"x1","pbrMetallicRoughness":{"baseColorFactor":[0.9,0.9,0.9,1],"metallicFactor":0.05,"roughnessFactor":0.5},"doubleSided":true}],"meshes":[{"name":"Mesh0","primitives":[{"indices":2,"material":0,"attributes":{"POSITION":0,"NORMAL":1}}]}],"accessors":[{"bufferView":0,"componentType":5126,"count":3086,"type":"VEC3","min":[-0.14632576704025269,0,-0.3724266588687897],"max":[0.14632576704025269,0.636412501335144,0.31033721566200256]},{"bufferView":1,"componentType":5126,"count":3086,"type":"VEC3"},{"bufferView":2,"componentType":5123,"count":3138,"type":"SCALAR"}],"bufferViews":[{"buffer":0,"byteLength":37032,"byteOffset":0},{"buffer":0,"byteLength":37032,"byteOffset":37032},{"buffer":0,"byteLength":6276,"byteOffset":74064}],"buffers":[{"byteLength":80340,"uri":"data:application/octet-stream;base64,"}]}