{"scene":0,"asset":{"generator":"ImageToStl.com","version":"2.0"},"scenes":[{"name":"Scene","nodes":[0]}],"nodes":[{"name":"Node0","children":[1]},{"name":"Node1","mesh":0,"NodeMesh":{"CalculatedWidth":56.97599983215332,"CalculatedHeight":27.819798946380615,"CalculatedDepth":28.266185760498047,"MaxDimension":56.97599983215332}}],"materials":[{"name":"x1","pbrMetallicRoughness":{"baseColorFactor":[0.9,0.9,0.9,1],"metallicFactor":0.05,"roughnessFactor":0.5},"doubleSided":true}],"meshes":[{"name":"Mesh0","primitives":[{"indices":2,"material":0,"attributes":{"POSITION":0,"NORMAL":1}}]}],"accessors":[{"bufferView":0,"componentType":5126,"count":1558,"type":"VEC3","min":[-0.12986111640930176,0,-0.17571015655994415],"max":[0.12986111640930176,0.5658440589904785,0.3043055832386017]},{"bufferView":1,"componentType":5126,"count":1558,"type":"VEC3"},{"bufferView":2,"componentType":5123,"count":1650,"type":"SCALAR"}],"bufferViews":[{"buffer":0,"byteLength":18696,"byteOffset":0},{"buffer":0,"byteLength":18696,"byteOffset":18696},{"buffer":0,"byteLength":3300,"byteOffset":37392}],"buffers":[{"byteLength":40692,"uri":"data:application/octet-stream;base64,"}]}